<svg width="50" height="55" viewBox="0 0 50 55" fill="none" xmlns="http://www.w3.org/2000/svg">
<path d="M27.2047 23.3851L28.8025 23.3757C29.8161 22.208 31.0399 20.8195 32.6391 20.9226C34.2446 20.8275 35.4621 22.1918 36.476 23.3757C37.1545 23.4043 38.4641 23.2935 39.0992 23.5542V12.369H10.9009V30.2279H22.5817L23.3766 29.3443L23.3937 27.5866C23.403 26.4771 23.8072 25.4158 24.5197 24.6303C25.2321 23.8448 26.196 23.3978 27.2047 23.3851ZM16.4551 19.4655C14.7751 19.4377 14.7657 16.6756 16.4551 16.6457H33.5449C35.2228 16.6784 35.2326 19.4306 33.5449 19.4655H16.4551Z" fill="#8D6440"/>
<path d="M44.2261 5.31943H5.77393C5.43517 5.31838 5.1099 5.4653 4.86956 5.7279C4.62923 5.99051 4.4935 6.34732 4.49219 6.71995V35.8675C4.49317 36.2411 4.62853 36.5991 4.86869 36.8633C5.10885 37.1275 5.43429 37.2764 5.77393 37.2774H22.9236C21.7879 36.1731 20.9478 34.7257 21.189 33.0477H9.61914C9.27951 33.0466 8.95406 32.8977 8.7139 32.6335C8.47375 32.3694 8.33839 32.0114 8.3374 31.6378V10.9591C8.33717 10.7739 8.37016 10.5904 8.43449 10.4192C8.49882 10.248 8.59322 10.0925 8.71229 9.96154C8.83135 9.83057 8.97275 9.72672 9.12836 9.65596C9.28398 9.5852 9.45075 9.54891 9.61914 9.54917H40.3809C40.7205 9.55024 41.0459 9.69913 41.2861 9.96331C41.5263 10.2275 41.6616 10.5855 41.6626 10.9591V26.1955C41.9876 26.9913 41.8791 28.477 41.9019 29.3443L43.0298 30.5944C44.8325 32.686 44.2857 35.5472 42.3548 37.2774H44.226C44.5652 37.2748 44.8899 37.1254 45.1297 36.8615C45.3696 36.5977 45.5054 36.2406 45.5078 35.8675V6.71995C45.5051 6.34782 45.3689 5.99193 45.1288 5.72967C44.8888 5.46741 44.5644 5.31998 44.2261 5.31943Z" fill="#8D6440"/>
<path d="M40.0135 43.7253L36.476 43.7535L34.8438 45.5206L36.1151 49.3702C36.1439 49.4576 36.1957 49.5336 36.2638 49.5886C36.3319 49.6435 36.4133 49.6751 36.4977 49.6792C36.5821 49.6833 36.6657 49.6598 36.738 49.6116C36.8102 49.5634 36.8679 49.4928 36.9036 49.4086L38.0909 46.611L40.6241 47.9151C40.7006 47.9545 40.7861 47.968 40.8697 47.954C40.9532 47.9399 41.0311 47.8989 41.0935 47.8361C41.1558 47.7733 41.1999 47.6916 41.22 47.6013C41.2401 47.511 41.2354 47.4162 41.2065 47.3288L40.0135 43.7253Z" fill="#8D6440"/>
<path d="M25.2735 43.7253L24.0804 47.3288C24.0515 47.4162 24.0468 47.511 24.067 47.6013C24.0871 47.6917 24.1311 47.7734 24.1935 47.8361C24.2558 47.8989 24.3337 47.9399 24.4173 47.954C24.5009 47.968 24.5863 47.9545 24.6629 47.9151L27.1961 46.611L28.3838 49.4095C28.4195 49.4937 28.4771 49.5643 28.5493 49.6125C28.6215 49.6606 28.7051 49.6842 28.7894 49.6801C28.8738 49.676 28.9552 49.6445 29.0233 49.5896C29.0913 49.5346 29.1431 49.4587 29.1719 49.3714L30.4433 45.53L28.8025 43.7535L25.2735 43.7253Z" fill="#8D6440"/>
<path d="M39.3487 30.5074L39.3295 27.6031C39.327 27.2336 39.1924 26.8799 38.9549 26.6186C38.7173 26.3573 38.3958 26.2093 38.0598 26.2065L35.4196 26.1854L33.5397 24.1473C33.3004 23.8879 32.9779 23.7424 32.6419 23.7424C32.3059 23.7424 31.9835 23.8879 31.7442 24.1473L29.8645 26.1854L27.2243 26.2065C26.8883 26.2091 26.5668 26.3571 26.3292 26.6184C26.0916 26.8798 25.957 27.2334 25.9546 27.603L25.9352 30.5074L24.0825 32.575C23.8466 32.8382 23.7144 33.193 23.7144 33.5626C23.7144 33.9322 23.8466 34.287 24.0825 34.5502L25.9353 36.618L25.9545 39.5223C25.9569 39.8918 26.0915 40.2455 26.3291 40.5068C26.5666 40.7681 26.8881 40.9161 27.2241 40.9189L29.8643 40.94L31.7442 42.9781C31.9835 43.2375 32.306 43.383 32.642 43.383C32.978 43.383 33.3005 43.2375 33.5398 42.9781L35.4194 40.94L38.0597 40.9189C38.3956 40.9162 38.7171 40.7682 38.9547 40.5069C39.1923 40.2456 39.3268 39.8919 39.3293 39.5224L39.3487 36.618L41.2014 34.5503C41.4373 34.2871 41.5696 33.9323 41.5696 33.5627C41.5696 33.1931 41.4373 32.8384 41.2014 32.5752L39.3487 30.5074ZM32.6421 37.3224C28.1243 37.1691 28.1251 29.9555 32.6421 29.8029C37.1599 29.9564 37.1588 37.1697 32.6421 37.3224H32.6421Z" fill="#8D6440"/>
</svg>
