<svg width="45" height="45" viewBox="0 0 45 45" fill="none" xmlns="http://www.w3.org/2000/svg">
<path d="M31.875 37.5H4.6875C2.10375 37.5 0 35.3963 0 32.8125V4.6875C0 2.10375 2.10375 0 4.6875 0H19.6875C20.0888 0 20.445 0.255 20.5744 0.63375L32.7619 36.2587C32.8594 36.5437 32.8125 36.8606 32.6381 37.1063C32.4619 37.3538 32.1787 37.5 31.875 37.5ZM4.6875 1.875C3.13687 1.875 1.875 3.13687 1.875 4.6875V32.8125C1.875 34.3631 3.13687 35.625 4.6875 35.625H30.5625L19.0181 1.875H4.6875Z" fill="#8D6440"/>
<path d="M40.3125 45H25.3125C24.9225 45 24.5719 44.7581 24.435 44.3925L21.6225 36.8925C21.4406 36.4069 21.6863 35.8669 22.17 35.685C22.6556 35.505 23.1956 35.7487 23.3775 36.2325L25.9631 43.125H40.3125C41.8631 43.125 43.125 41.8631 43.125 40.3125V12.1875C43.125 10.6369 41.8631 9.375 40.3125 9.375H22.5C21.9825 9.375 21.5625 8.955 21.5625 8.4375C21.5625 7.92 21.9825 7.5 22.5 7.5H40.3125C42.8963 7.5 45 9.60375 45 12.1875V40.3125C45 42.8962 42.8963 45 40.3125 45Z" fill="#8D6440"/>
<path d="M25.3125 45C25.0931 45 24.8737 44.9231 24.6956 44.7675C24.3056 44.4262 24.2662 43.8337 24.6075 43.4437L31.17 35.9437C31.5112 35.5519 32.1037 35.5144 32.4937 35.8556C32.8837 36.1969 32.9231 36.7894 32.5819 37.1794L26.0194 44.6794C25.8319 44.8912 25.5731 45 25.3125 45Z" fill="#8D6440"/>
<path d="M17.8125 26.25C17.4263 26.25 17.0663 26.0119 16.9294 25.6275L13.125 14.9756L9.32065 25.6275C9.14627 26.115 8.60815 26.37 8.12252 26.1956C7.63502 26.0212 7.38002 25.485 7.5544 24.9975L12.2419 11.8725C12.5081 11.1262 13.7419 11.1262 14.0063 11.8725L18.6938 24.9975C18.8682 25.485 18.615 26.0212 18.1256 26.1956C18.0244 26.2331 17.9175 26.25 17.8125 26.25Z" fill="#8D6440"/>
<path d="M15 20.625H11.25C10.7325 20.625 10.3125 20.205 10.3125 19.6875C10.3125 19.17 10.7325 18.75 11.25 18.75H15C15.5175 18.75 15.9375 19.17 15.9375 19.6875C15.9375 20.205 15.5175 20.625 15 20.625Z" fill="#8D6440"/>
<path d="M40.3125 20.625H27.1875C26.67 20.625 26.25 20.205 26.25 19.6875C26.25 19.17 26.67 18.75 27.1875 18.75H40.3125C40.83 18.75 41.25 19.17 41.25 19.6875C41.25 20.205 40.83 20.625 40.3125 20.625Z" fill="#8D6440"/>
<path d="M32.8125 20.625C32.295 20.625 31.875 20.205 31.875 19.6875V17.8125C31.875 17.295 32.295 16.875 32.8125 16.875C33.33 16.875 33.75 17.295 33.75 17.8125V19.6875C33.75 20.205 33.33 20.625 32.8125 20.625Z" fill="#8D6440"/>
<path d="M29.9998 31.875C29.7055 31.875 29.4167 31.7381 29.2348 31.4812C28.9348 31.0594 29.0342 30.4744 29.4561 30.1744C33.5605 27.2587 36.5623 21.3112 36.5623 19.6894C36.5623 19.1719 36.9823 18.7519 37.4998 18.7519C38.0173 18.7519 38.4373 19.1719 38.4373 19.6894C38.4373 22.1606 34.8242 28.6612 30.5436 31.7044C30.3786 31.8187 30.1892 31.875 29.9998 31.875Z" fill="#8D6440"/>
<path d="M37.5002 33.75C37.2733 33.75 37.0464 33.6694 36.8683 33.5044C36.1877 32.8819 30.197 27.3488 29.132 24.7275C28.937 24.2475 29.1695 23.7019 29.6477 23.5069C30.122 23.3138 30.6733 23.5425 30.8683 24.0225C31.6352 25.9106 36.3733 30.5081 38.1339 32.1206C38.5164 32.4713 38.5408 33.0619 38.192 33.4463C38.0064 33.6469 37.7533 33.75 37.5002 33.75Z" fill="#8D6440"/>
</svg>
